/* XPM */
static char * wm_hint_xpm[] = {
"53 54 42 1",
" 	c None",
".	c #1659E0",
"+	c #F5EB15",
"@	c #F6EA15",
"#	c #F4EA15",
"$	c #F6EB16",
"%	c #F6EB15",
"&	c #F5EA15",
"*	c #F7EB15",
"=	c #F4EA14",
"-	c #134FC7",
";	c #0C317C",
">	c #000000",
",	c #88820B",
"'	c #A49C0E",
")	c #A49D0E",
"!	c #F5EA14",
"~	c #0E3B95",
"{	c #020A19",
"]	c #6E6809",
"^	c #F6E915",
"/	c #1B1A02",
"(	c #363404",
"_	c #071D4A",
":	c #1145AE",
"<	c #F5E915",
"[	c #F6EA14",
"}	c #F5EA16",
"|	c #F6EA16",
"1	c #A39C0D",
"2	c #A39C0E",
"3	c #BFB710",
"4	c #514D07",
"5	c #524E07",
"6	c #F5EC15",
"7	c #F6EB14",
"8	c #041332",
"9	c #092764",
"0	c #F6EC16",
"a	c #DAD013",
"b	c #F4EA16",
"c	c #F5EC14",
"                                                     ",
"                                                     ",
"                                                     ",
"                                                     ",
"                                                     ",
"                                                     ",
"                                                     ",
"                                                     ",
"                                                     ",
"                     .                               ",
"                     ..                              ",
"                    ...                              ",
"                   +...                              ",
"                   @....         .                   ",
"                   #.$..         .                   ",
"                   ..%..        ...                  ",
"                   ..&..       *...                  ",
"                  .. +=-;>>>>>>,-..                  ",
"                  ..  '>>>>>>>>>>).                  ",
"                 !.. >>>>>>>>>>>>>~.                 ",
"                 ..  >>>{     ]>>>{-                 ",
"                 .  >>>{-     ^;>>>;                 ",
"           .    ..  >>>-.     +./(_:         .       ",
"          ...   .. >>>>^..    .. <[..        .       ",
"         ....  ..  >>> ^..    ..  %...      ...      ",
"  ........}|..+..  >>> %..   1~~  23..     *....     ",
"      ... +=..%..  >>> ^..  >>>>>>>4..     ..+..     ",
"      +     @...   >>> !..  >>>>>>>5..    ..!=!..    ",
"            !!..   >>>> %.. >__>>>>5...   ..    .... ",
"             +.    >>>> %.. &.. >>>56..  <..    *..  ",
"                    >>> %.. 7.. >>>><..  +.          ",
"                    >>>>'.. =.. >>>>%..  ..          ",
"                     >>>>8; '9{>>>>> %..0..          ",
"                      >>>>>>>>>>>>>  }..[..          ",
"                       >>>>>>>>>>     %.0.           ",
"                        a~_4__        !...           ",
"                         %.@.          $..           ",
"                         [...          [..           ",
"                         |...          b.            ",
"                         @...           .            ",
"                         c%..                        ",
"                          %..                        ",
"                           .                         ",
"                                                     ",
"                                                     ",
"                                                     ",
"                                                     ",
"                                                     ",
"                                                     ",
"                                                     ",
"                                                     ",
"                                                     ",
"                                                     ",
"                                                     "};
